<?xml version="1.0" standalone="no"?>
<!DOCTYPE svg PUBLIC "-//W3C//DTD SVG 20010904//EN"
 "http://www.w3.org/TR/2001/REC-SVG-20010904/DTD/svg10.dtd">
<svg version="1.0" xmlns="http://www.w3.org/2000/svg"
 width="260.000000pt" height="260.000000pt" viewBox="0 0 260.000000 260.000000"
 preserveAspectRatio="xMidYMid meet">
<metadata>
Created by potrace 1.11, written by Peter Selinger 2001-2013
</metadata>
<g transform="translate(0.000000,260.000000) scale(0.100000,-0.100000)"
fill="#000000" stroke="none">
<path d="M0 1300 l0 -1300 1300 0 1300 0 0 1300 0 1300 -1300 0 -1300 0 0
-1300z m885 923 c27 -27 105 -181 154 -305 13 -32 27 -58 32 -58 5 0 18 18 29
40 42 82 134 215 181 261 26 26 68 56 92 68 47 23 127 28 173 11 l27 -11 -48
-49 c-46 -47 -50 -49 -90 -43 -87 11 -148 -45 -272 -251 l-65 -109 53 -126
c103 -247 137 -301 194 -301 35 0 62 24 89 78 32 62 57 24 27 -42 -57 -129
-169 -182 -245 -116 -36 32 -87 124 -156 283 l-43 97 -55 -92 c-97 -165 -190
-263 -286 -303 -41 -17 -122 -20 -162 -5 l-27 11 49 50 c47 47 51 49 90 43
100 -15 201 82 331 317 l31 55 -57 135 c-100 231 -123 269 -166 269 -26 0 -74
-50 -94 -98 -7 -18 -17 -32 -22 -32 -18 0 -20 48 -4 86 58 141 171 205 240
137z m1135 -245 c115 -59 120 -187 10 -281 -23 -19 -71 -51 -106 -69 l-65 -35
43 -12 c107 -32 160 -80 176 -158 11 -48 5 -103 -17 -156 -19 -49 -121 -141
-195 -178 -63 -30 -80 -34 -170 -37 -64 -2 -116 2 -143 10 l-41 13 38 44 39
45 63 -20 c89 -27 191 -25 244 5 117 65 127 225 20 302 -51 38 -129 60 -216
62 -39 1 -70 3 -70 5 0 1 19 19 41 40 33 29 53 39 95 44 94 13 188 75 213 141
15 38 14 96 -2 127 -7 13 -28 35 -47 48 -49 34 -151 27 -211 -12 -22 -15 -43
-25 -46 -23 -11 12 9 44 39 62 102 60 228 73 308 33z m-1080 -1228 c0 -16 -8
-19 -57 -22 l-58 -3 -3 -157 -3 -158 -24 0 -25 0 0 160 0 160 -60 0 c-53 0
-60 2 -60 20 0 19 7 20 145 20 137 0 145 -1 145 -20z m285 8 c31 -14 55 -55
55 -93 0 -29 -49 -85 -74 -85 -9 0 -16 -4 -16 -10 0 -5 4 -10 9 -10 5 0 32
-34 60 -75 l52 -75 -33 0 c-29 0 -37 7 -72 60 -49 77 -78 100 -127 100 l-39 0
0 -80 c0 -79 0 -80 -25 -80 l-25 0 0 180 0 180 105 0 c59 0 115 -5 130 -12z
m395 -8 c0 -18 -8 -20 -107 -22 l-108 -3 -3 -52 -3 -53 100 0 101 0 0 -25 0
-25 -100 0 -100 0 0 -60 0 -60 110 0 c103 0 110 -1 110 -20 0 -19 -7 -20 -135
-20 l-135 0 0 180 0 180 135 0 c128 0 135 -1 135 -20z m320 -2 c0 -14 -44 -77
-110 -158 l-109 -135 114 -3 c107 -2 115 -4 115 -22 0 -19 -7 -20 -145 -20
-144 0 -145 0 -145 23 0 13 41 73 105 152 57 72 104 133 105 138 0 4 -43 7
-95 7 -88 0 -95 1 -95 20 0 19 7 20 130 20 128 0 130 0 130 -22z"/>
<path d="M1040 670 l0 -60 49 0 c101 0 148 27 135 77 -8 29 -45 43 -119 43
l-65 0 0 -60z"/>
</g>
</svg>
