<?xml version="1.0" standalone="no"?>
<!DOCTYPE svg PUBLIC "-//W3C//DTD SVG 20010904//EN"
 "http://www.w3.org/TR/2001/REC-SVG-20010904/DTD/svg10.dtd">
<svg version="1.0" xmlns="http://www.w3.org/2000/svg"
 width="190.000000pt" height="190.000000pt" viewBox="0 0 190.000000 190.000000"
 preserveAspectRatio="xMidYMid meet">
<metadata>
Created by potrace 1.11, written by Peter Selinger 2001-2013
</metadata>
<g transform="translate(0.000000,190.000000) scale(0.100000,-0.100000)"
fill="#000000" stroke="none">
<path d="M16 1374 c-14 -13 -16 -65 -16 -419 0 -354 2 -406 16 -419 24 -25 63
-20 76 9 6 14 14 24 17 23 3 -2 33 -16 66 -32 197 -93 415 68 392 289 -7 70
-36 123 -96 177 -87 78 -199 93 -303 39 -32 -16 -59 -26 -62 -23 -2 4 -3 83
-3 175 0 153 -2 169 -19 182 -25 19 -49 19 -68 -1z m363 -409 c96 -49 135
-177 81 -268 -11 -19 -39 -48 -62 -63 -35 -24 -51 -29 -104 -29 -53 0 -69 4
-105 30 -163 115 -72 369 125 348 22 -2 51 -10 65 -18z"/>
<path d="M696 1044 c-22 -22 -23 -297 -1 -370 35 -117 157 -185 287 -159 75
15 134 58 172 125 29 52 30 55 31 212 1 176 -5 201 -49 206 -49 6 -55 -16 -56
-186 0 -164 -5 -186 -54 -231 -38 -35 -122 -41 -169 -12 -66 40 -71 57 -74
240 -2 104 -7 168 -14 177 -15 19 -54 18 -73 -2z"/>
<path d="M1340 1045 c-20 -24 -4 -57 60 -119 33 -32 60 -61 60 -65 -1 -3 -37
-32 -80 -64 -58 -42 -80 -65 -80 -81 0 -14 32 -54 93 -114 91 -91 119 -106
145 -80 25 25 11 54 -53 118 -35 35 -62 67 -59 72 3 4 39 33 80 63 100 74 99
80 -17 195 -93 91 -123 106 -149 75z"/>
<path d="M1662 1048 c-24 -24 -12 -54 48 -113 33 -33 59 -66 58 -73 -2 -7 -37
-39 -78 -71 -57 -44 -74 -63 -73 -80 3 -27 174 -201 197 -201 28 0 56 20 56
39 0 11 -29 49 -65 86 -36 36 -65 70 -65 74 0 4 34 32 75 61 108 77 108 81 -6
196 -92 93 -120 109 -147 82z"/>
</g>
</svg>
